<svg width="232" height="56" viewBox="0 0 232 56" fill="none" xmlns="http://www.w3.org/2000/svg">
<rect width="6.87436" height="27.4974" rx="3.43718" transform="matrix(0.802434 0.596741 -0.59674 0.802435 16.6172 7.66016)" fill="url(#paint0_linear_310_1971)"/>
<rect width="6.87436" height="27.4974" rx="3.43718" transform="matrix(0.67042 -0.741982 0.741981 0.670421 0 29.7109)" fill="url(#paint1_linear_310_1971)"/>
<rect width="6.87409" height="27.4968" rx="3.43704" transform="matrix(-0.802417 0.596764 0.596716 0.802452 54.7051 7.85352)" fill="url(#paint2_linear_310_1971)"/>
<rect width="6.87417" height="27.4965" rx="3.43708" transform="matrix(-0.670397 -0.742002 -0.741961 0.670443 71.3213 29.9043)" fill="url(#paint3_linear_310_1971)"/>
<rect width="5.15577" height="19.3341" rx="2.57788" transform="matrix(0.707106 -0.707107 0.707106 0.707107 27.0674 21.7637)" fill="#007F86"/>
<rect x="27.6514" y="29.3359" width="5.15577" height="8.16331" rx="2.57788" fill="#DAA520"/>
<rect x="38.8223" y="15.5879" width="5.15577" height="8.16331" rx="2.57788" fill="#DAA520"/>
<path d="M93.8613 38.8C92.2613 38.8 90.7713 38.54 89.3913 38.02C88.0313 37.48 86.8413 36.73 85.8213 35.77C84.8213 34.79 84.0413 33.64 83.4813 32.32C82.9213 31 82.6413 29.56 82.6413 28C82.6413 26.44 82.9213 25 83.4813 23.68C84.0413 22.36 84.8313 21.22 85.8513 20.26C86.8713 19.28 88.0613 18.53 89.4213 18.01C90.7813 17.47 92.2713 17.2 93.8913 17.2C95.6113 17.2 97.1813 17.5 98.6013 18.1C100.021 18.68 101.221 19.55 102.201 20.71L99.6813 23.08C98.9213 22.26 98.0713 21.65 97.1313 21.25C96.1913 20.83 95.1713 20.62 94.0713 20.62C92.9713 20.62 91.9613 20.8 91.0413 21.16C90.1413 21.52 89.3513 22.03 88.6713 22.69C88.0113 23.35 87.4913 24.13 87.1113 25.03C86.7513 25.93 86.5713 26.92 86.5713 28C86.5713 29.08 86.7513 30.07 87.1113 30.97C87.4913 31.87 88.0113 32.65 88.6713 33.31C89.3513 33.97 90.1413 34.48 91.0413 34.84C91.9613 35.2 92.9713 35.38 94.0713 35.38C95.1713 35.38 96.1913 35.18 97.1313 34.78C98.0713 34.36 98.9213 33.73 99.6813 32.89L102.201 35.29C101.221 36.43 100.021 37.3 98.6013 37.9C97.1813 38.5 95.6013 38.8 93.8613 38.8ZM113.363 38.71C111.723 38.71 110.263 38.36 108.983 37.66C107.703 36.94 106.693 35.96 105.953 34.72C105.213 33.48 104.843 32.07 104.843 30.49C104.843 28.89 105.213 27.48 105.953 26.26C106.693 25.02 107.703 24.05 108.983 23.35C110.263 22.65 111.723 22.3 113.363 22.3C115.023 22.3 116.493 22.65 117.773 23.35C119.073 24.05 120.083 25.01 120.803 26.23C121.543 27.45 121.913 28.87 121.913 30.49C121.913 32.07 121.543 33.48 120.803 34.72C120.083 35.96 119.073 36.94 117.773 37.66C116.493 38.36 115.023 38.71 113.363 38.71ZM113.363 35.5C114.283 35.5 115.103 35.3 115.823 34.9C116.543 34.5 117.103 33.92 117.503 33.16C117.923 32.4 118.133 31.51 118.133 30.49C118.133 29.45 117.923 28.56 117.503 27.82C117.103 27.06 116.543 26.48 115.823 26.08C115.103 25.68 114.293 25.48 113.393 25.48C112.473 25.48 111.653 25.68 110.933 26.08C110.233 26.48 109.673 27.06 109.253 27.82C108.833 28.56 108.623 29.45 108.623 30.49C108.623 31.51 108.833 32.4 109.253 33.16C109.673 33.92 110.233 34.5 110.933 34.9C111.653 35.3 112.463 35.5 113.363 35.5ZM133.479 38.71C131.939 38.71 130.549 38.37 129.309 37.69C128.089 36.99 127.129 36.03 126.429 34.81C125.729 33.59 125.379 32.15 125.379 30.49C125.379 28.83 125.729 27.39 126.429 26.17C127.129 24.95 128.089 24 129.309 23.32C130.549 22.64 131.939 22.3 133.479 22.3C134.819 22.3 136.019 22.6 137.079 23.2C138.139 23.78 138.979 24.67 139.599 25.87C140.219 27.07 140.529 28.61 140.529 30.49C140.529 32.35 140.229 33.89 139.629 35.11C139.029 36.31 138.199 37.21 137.139 37.81C136.079 38.41 134.859 38.71 133.479 38.71ZM133.929 35.5C134.829 35.5 135.629 35.3 136.329 34.9C137.049 34.5 137.619 33.92 138.039 33.16C138.479 32.4 138.699 31.51 138.699 30.49C138.699 29.45 138.479 28.56 138.039 27.82C137.619 27.06 137.049 26.48 136.329 26.08C135.629 25.68 134.829 25.48 133.929 25.48C133.029 25.48 132.219 25.68 131.499 26.08C130.799 26.48 130.229 27.06 129.789 27.82C129.369 28.56 129.159 29.45 129.159 30.49C129.159 31.51 129.369 32.4 129.789 33.16C130.229 33.92 130.799 34.5 131.499 34.9C132.219 35.3 133.029 35.5 133.929 35.5ZM138.789 38.5V34.72L138.939 30.46L138.639 26.2V16.24H142.359V38.5H138.789ZM156.025 38.71C154.245 38.71 152.685 38.36 151.345 37.66C150.025 36.94 148.995 35.96 148.255 34.72C147.535 33.48 147.175 32.07 147.175 30.49C147.175 28.89 147.525 27.48 148.225 26.26C148.945 25.02 149.925 24.05 151.165 23.35C152.425 22.65 153.855 22.3 155.455 22.3C157.015 22.3 158.405 22.64 159.625 23.32C160.845 24 161.805 24.96 162.505 26.2C163.205 27.44 163.555 28.9 163.555 30.58C163.555 30.74 163.545 30.92 163.525 31.12C163.525 31.32 163.515 31.51 163.495 31.69H150.145V29.2H161.515L160.045 29.98C160.065 29.06 159.875 28.25 159.475 27.55C159.075 26.85 158.525 26.3 157.825 25.9C157.145 25.5 156.355 25.3 155.455 25.3C154.535 25.3 153.725 25.5 153.025 25.9C152.345 26.3 151.805 26.86 151.405 27.58C151.025 28.28 150.835 29.11 150.835 30.07V30.67C150.835 31.63 151.055 32.48 151.495 33.22C151.935 33.96 152.555 34.53 153.355 34.93C154.155 35.33 155.075 35.53 156.115 35.53C157.015 35.53 157.825 35.39 158.545 35.11C159.265 34.83 159.905 34.39 160.465 33.79L162.475 36.1C161.755 36.94 160.845 37.59 159.745 38.05C158.665 38.49 157.425 38.71 156.025 38.71Z" fill="#00ADB6"/>
<path d="M174.387 38.71C172.627 38.71 171.267 38.26 170.307 37.36C169.347 36.44 168.867 35.09 168.867 33.31V18.94H172.617V33.22C172.617 33.98 172.807 34.57 173.187 34.99C173.587 35.41 174.137 35.62 174.837 35.62C175.677 35.62 176.377 35.4 176.937 34.96L177.987 37.63C177.547 37.99 177.007 38.26 176.367 38.44C175.727 38.62 175.067 38.71 174.387 38.71ZM166.227 25.6V22.6H176.907V25.6H166.227ZM182.272 38.5V22.48H186.022V38.5H182.272ZM184.162 19.84C183.462 19.84 182.882 19.62 182.422 19.18C181.982 18.74 181.762 18.21 181.762 17.59C181.762 16.95 181.982 16.42 182.422 16C182.882 15.56 183.462 15.34 184.162 15.34C184.862 15.34 185.432 15.55 185.872 15.97C186.332 16.37 186.562 16.88 186.562 17.5C186.562 18.16 186.342 18.72 185.902 19.18C185.462 19.62 184.882 19.84 184.162 19.84ZM199.343 38.71C197.703 38.71 196.243 38.36 194.963 37.66C193.683 36.94 192.673 35.96 191.933 34.72C191.193 33.48 190.823 32.07 190.823 30.49C190.823 28.89 191.193 27.48 191.933 26.26C192.673 25.02 193.683 24.05 194.963 23.35C196.243 22.65 197.703 22.3 199.343 22.3C201.003 22.3 202.473 22.65 203.753 23.35C205.053 24.05 206.063 25.01 206.783 26.23C207.523 27.45 207.893 28.87 207.893 30.49C207.893 32.07 207.523 33.48 206.783 34.72C206.063 35.96 205.053 36.94 203.753 37.66C202.473 38.36 201.003 38.71 199.343 38.71ZM199.343 35.5C200.263 35.5 201.083 35.3 201.803 34.9C202.523 34.5 203.083 33.92 203.483 33.16C203.903 32.4 204.113 31.51 204.113 30.49C204.113 29.45 203.903 28.56 203.483 27.82C203.083 27.06 202.523 26.48 201.803 26.08C201.083 25.68 200.273 25.48 199.373 25.48C198.453 25.48 197.633 25.68 196.913 26.08C196.213 26.48 195.653 27.06 195.233 27.82C194.813 28.56 194.603 29.45 194.603 30.49C194.603 31.51 194.813 32.4 195.233 33.16C195.653 33.92 196.213 34.5 196.913 34.9C197.633 35.3 198.443 35.5 199.343 35.5ZM221.769 22.3C223.049 22.3 224.189 22.55 225.189 23.05C226.209 23.55 227.009 24.32 227.589 25.36C228.169 26.38 228.459 27.7 228.459 29.32V38.5H224.709V29.8C224.709 28.38 224.369 27.32 223.689 26.62C223.029 25.92 222.099 25.57 220.899 25.57C220.019 25.57 219.239 25.75 218.559 26.11C217.879 26.47 217.349 27.01 216.969 27.73C216.609 28.43 216.429 29.32 216.429 30.4V38.5H212.679V22.48H216.249V26.8L215.619 25.48C216.179 24.46 216.989 23.68 218.049 23.14C219.129 22.58 220.369 22.3 221.769 22.3Z" fill="white"/>
<defs>
<linearGradient id="paint0_linear_310_1971" x1="4.9925" y1="1.08034" x2="0.807744" y2="26.4127" gradientUnits="userSpaceOnUse">
<stop stop-color="#FFBB07"/>
<stop offset="1" stop-color="#007F86"/>
</linearGradient>
<linearGradient id="paint1_linear_310_1971" x1="-0.0311904" y1="-3.15661" x2="6.30497" y2="27.8882" gradientUnits="userSpaceOnUse">
<stop stop-color="#007F86"/>
<stop offset="1" stop-color="#FFC107"/>
</linearGradient>
<linearGradient id="paint2_linear_310_1971" x1="4.9923" y1="1.08032" x2="0.807569" y2="26.4121" gradientUnits="userSpaceOnUse">
<stop stop-color="#FFBB07"/>
<stop offset="1" stop-color="#007F86"/>
</linearGradient>
<linearGradient id="paint3_linear_310_1971" x1="-0.0311895" y1="-3.15651" x2="6.30473" y2="27.8873" gradientUnits="userSpaceOnUse">
<stop stop-color="#007F86"/>
<stop offset="1" stop-color="#FFC107"/>
</linearGradient>
</defs>
</svg>
