<svg width="31" height="30" viewBox="0 0 31 30" fill="none" xmlns="http://www.w3.org/2000/svg">
<path d="M27.7569 12.5519H26.75V12.5H15.5V17.5H22.5644C21.5338 20.4106 18.7644 22.5 15.5 22.5C11.3581 22.5 8 19.1419 8 15C8 10.8581 11.3581 7.5 15.5 7.5C17.4119 7.5 19.1513 8.22125 20.4756 9.39938L24.0113 5.86375C21.7788 3.78313 18.7925 2.5 15.5 2.5C8.59688 2.5 3 8.09688 3 15C3 21.9031 8.59688 27.5 15.5 27.5C22.4031 27.5 28 21.9031 28 15C28 14.1619 27.9138 13.3438 27.7569 12.5519Z" fill="#FFC107"/>
<path d="M4.44125 9.18188L8.54813 12.1938C9.65938 9.4425 12.3506 7.5 15.5 7.5C17.4119 7.5 19.1512 8.22125 20.4756 9.39938L24.0112 5.86375C21.7787 3.78313 18.7925 2.5 15.5 2.5C10.6988 2.5 6.535 5.21063 4.44125 9.18188Z" fill="#FF3D00"/>
<path d="M15.5 27.5C18.7287 27.5 21.6625 26.2644 23.8806 24.255L20.0119 20.9813C18.7147 21.9677 17.1297 22.5013 15.5 22.5C12.2487 22.5 9.48812 20.4269 8.44812 17.5338L4.37187 20.6744C6.44062 24.7225 10.6419 27.5 15.5 27.5Z" fill="#4CAF50"/>
<path d="M27.7569 12.5519H26.75V12.5H15.5V17.5H22.5644C22.0714 18.8853 21.1833 20.0957 20.01 20.9819L20.0119 20.9806L23.8806 24.2544C23.6069 24.5031 28 21.25 28 15C28 14.1619 27.9138 13.3437 27.7569 12.5519Z" fill="#1976D2"/>
</svg>
